<svg width="220" height="220" viewBox="0 0 220 220" fill="none" xmlns="http://www.w3.org/2000/svg">
<path d="M201.321 101.419H208.828V118.581H201.321V101.419ZM186.529 123.606H194.036V96.3944H186.529V123.606ZM171.985 137.68H179.492V82.3195H171.985V137.68ZM158.159 148.541H165.666V71.9654H158.159V148.523V148.541ZM143.357 129.841H150.864V90.1592H143.357V129.841ZM128.321 159.867H135.827V58.4349H128.297V159.867H128.321ZM113.523 174.41H121.03V45.5898H113.523V174.41ZM98.9794 154.522H106.486V65.4771H98.9794V154.523V154.522ZM83.9334 129.235H91.4401V91.7022H83.9334V129.235ZM69.3898 120.288H76.8964V99.6789H69.3898V120.322V120.288ZM54.8457 131.314H62.3524V88.6716H54.8457V131.328V131.314ZM40.5363 151.956H48.0429V65.6038H40.5367V151.971L40.5363 151.956ZM25.9927 138.764H33.4993V80.4946H25.9927V138.778V138.764ZM11.1719 123.606H18.6785V96.3944H11.1719V123.606Z" fill="url(#paint0_linear_8_68)"/>
<defs>
<linearGradient id="paint0_linear_8_68" x1="110.988" y1="45.5898" x2="110.988" y2="174.41" gradientUnits="userSpaceOnUse">
<stop stop-color="#F14A21"/>
<stop offset="0.75" stop-color="#F4671F"/>
<stop offset="1" stop-color="#F7861C"/>
</linearGradient>
</defs>
</svg>
